<mxfile host="app.diagrams.net" agent="Mozilla/5.0 (Windows NT 10.0; Win64; x64) AppleWebKit/537.36 (KHTML, like Gecko) Chrome/136.0.0.0 Safari/537.36" version="27.0.5">
  <diagram name="Page-1" id="Wk2SZ3Dgn6wj2FgpQmdu">
    <mxGraphModel dx="1901" dy="1100" grid="1" gridSize="10" guides="1" tooltips="1" connect="1" arrows="1" fold="1" page="1" pageScale="1" pageWidth="1920" pageHeight="1080" math="0" shadow="0">
      <root>
        <mxCell id="0" />
        <mxCell id="1" parent="0" />
        <mxCell id="2mj4cjvI3WKVShRjhSFl-1" value="" style="rounded=0;whiteSpace=wrap;html=1;fillColor=light-dark(#FFFFFF,#FFFFFF);" parent="1" vertex="1">
          <mxGeometry width="1920" height="1080" as="geometry" />
        </mxCell>
        <mxCell id="2mj4cjvI3WKVShRjhSFl-2" value="" style="rounded=0;whiteSpace=wrap;html=1;fillColor=light-dark(#FFFFFF,#007FFF);" parent="1" vertex="1">
          <mxGeometry width="1920" height="100" as="geometry" />
        </mxCell>
        <mxCell id="2mj4cjvI3WKVShRjhSFl-3" value="" style="rounded=0;whiteSpace=wrap;html=1;fillColor=light-dark(#FFFFFF,#1A1A1A);" parent="1" vertex="1">
          <mxGeometry y="100" width="1920" height="80" as="geometry" />
        </mxCell>
        <mxCell id="2mj4cjvI3WKVShRjhSFl-5" value="Meet Our Team" style="text;html=1;align=center;verticalAlign=middle;whiteSpace=wrap;rounded=0;fontSize=30;" parent="1" vertex="1">
          <mxGeometry x="840" y="20" width="240" height="60" as="geometry" />
        </mxCell>
        <mxCell id="2mj4cjvI3WKVShRjhSFl-6" value="Hot Beans Web" style="text;html=1;align=center;verticalAlign=middle;whiteSpace=wrap;rounded=0;fontSize=30;" parent="1" vertex="1">
          <mxGeometry x="300" y="100" width="220" height="80" as="geometry" />
        </mxCell>
        <mxCell id="2mj4cjvI3WKVShRjhSFl-7" value="&lt;font style=&quot;font-size: 20px;&quot;&gt;Company Profile&amp;nbsp; Our Team&amp;nbsp; Job Openings&amp;nbsp; Apply Now&amp;nbsp; Courses&amp;nbsp; Privacy Policy&lt;/font&gt;" style="text;whiteSpace=wrap;html=1;fontSize=25;verticalAlign=middle;" parent="1" vertex="1">
          <mxGeometry x="1020" y="100" width="900" height="80" as="geometry" />
        </mxCell>
        <UserObject label="Daniel Lecroy&lt;br&gt;Daniel Lecroy&lt;br&gt;Junior Web Developer&lt;br&gt;&lt;br&gt;&lt;br&gt;I&#39;m Daniel and probably not the typical designer positioned behind an Illustrator artboard adjusting pixels, but I design. Immersed in stylesheets tweaking font sizes and contemplating layouts is where you&#39;ll find me (~_^). I&#39;m committed to creating fluent user experiences while staying fashionable.&lt;br&gt;&lt;br&gt;&lt;br&gt;In building JavaScript applications, I&#39;m equipped with just the right tools, and can absolutely function independently of them to deliver fast, resilient solutions optimized for scale — performance and scalability are priorities on my radar.&lt;br&gt;&lt;br&gt;&lt;br&gt;I draw inspiration from a lot of different places when designing websites. Being a designer and creating something new every day is challenging. Sometimes, ideas spark instantly. But other times? They can take hours or even days to develop. When this happens, it’s useful to step away from the project for a moment and look to others’ work like at csszengarden to find inspiration.&lt;br&gt;&lt;br&gt;&lt;br&gt;I also draw inspiration and awe from cultural art from around the world both old and new.&lt;br&gt;&lt;br&gt;&lt;br&gt;Li Chang&lt;br&gt;Li Chang&lt;br&gt;Junior Web Developer&lt;br&gt;&lt;br&gt;&lt;br&gt;Hello! My name is Li and I enjoy creating things that live on the internet. I decided on this career as I grew up with a heavy influence from my father who ran his own software house, and I got an insight into what it&#39;s like to work in the tech industry. My father would always hype about how learning to program or by &#39;speaking the computer&#39;s language&#39;, he could type a few lines of code and tell the computer to do whatever he wanted it to do and that just blew my then curious and budding little mind." id="qmOIuZe4hRwivx6xctNg-1">
          <mxCell style="text;whiteSpace=wrap;html=1;fontColor=light-dark(#000000,#000000);fontSize=20;" parent="1" vertex="1">
            <mxGeometry x="210" y="210" width="1500" height="750" as="geometry" />
          </mxCell>
        </UserObject>
        <mxCell id="6vwyDtYXKGUiSL_Yxjqe-2" value="" style="rounded=0;whiteSpace=wrap;html=1;fillColor=light-dark(#FFFFFF,#1A1A1A);" parent="1" vertex="1">
          <mxGeometry y="1000" width="1920" height="80" as="geometry" />
        </mxCell>
        <mxCell id="6vwyDtYXKGUiSL_Yxjqe-1" value="© 2025 Hot Beans Web. All rights reserved." style="text;whiteSpace=wrap;html=1;align=center;verticalAlign=middle;fontSize=20;" parent="1" vertex="1">
          <mxGeometry x="760" y="1000" width="400" height="80" as="geometry" />
        </mxCell>
      </root>
    </mxGraphModel>
  </diagram>
</mxfile>
